<svg width="26" height="20" viewBox="0 0 26 20" fill="none" xmlns="http://www.w3.org/2000/svg">
<path d="M21.05 10H16.45M21.05 6.625H15.3M21.05 13.375H17.6M11.85 6.625C11.85 7.86764 10.8203 8.875 9.55 8.875C8.27974 8.875 7.25 7.86764 7.25 6.625C7.25 5.38236 8.27974 4.375 9.55 4.375C10.8203 4.375 11.85 5.38236 11.85 6.625ZM14.15 13.375C14.15 14.6181 14.15 15.625 9.55 15.625C4.95 15.625 4.95 14.6181 4.95 13.375C4.95 12.1319 7.0085 11.125 9.55 11.125C12.0915 11.125 14.15 12.1319 14.15 13.375ZM1.5 10C1.5 5.75763 1.5 3.63587 2.8478 2.3185C4.1956 1.00112 6.36335 1 10.7 1H15.3C19.6366 1 21.8055 1 23.1522 2.3185C24.4988 3.637 24.5 5.75763 24.5 10C24.5 14.2424 24.5 16.3641 23.1522 17.6815C21.8044 18.9989 19.6366 19 15.3 19H10.7C6.36335 19 4.19445 19 2.8478 17.6815C1.50115 16.363 1.5 14.2424 1.5 10Z" stroke="white" stroke-width="1.5" stroke-linecap="round"/>
</svg>
