<svg width="25" height="18" viewBox="0 0 25 18" fill="none" xmlns="http://www.w3.org/2000/svg">
<g clip-path="url(#clip0_70_80)">
<path d="M12.4987 2.46153C12.2463 2.46136 11.9991 2.53144 11.7857 2.66362C11.5723 2.79579 11.4016 2.98465 11.2933 3.20823C11.2383 3.32672 11.1597 3.43328 11.0623 3.52169C10.9648 3.6101 10.8504 3.67859 10.7256 3.72316C10.6009 3.76774 10.4683 3.7875 10.3357 3.78131C10.2031 3.77511 10.0731 3.74308 9.95324 3.68709C9.83338 3.63109 9.72609 3.55224 9.63763 3.45515C9.54917 3.35806 9.48131 3.24466 9.438 3.12157C9.39469 2.99849 9.37681 2.86817 9.38539 2.73824C9.39398 2.6083 9.42886 2.48134 9.488 2.36477C9.70639 1.91546 10.0265 1.52099 10.4239 1.21144C10.8214 0.901896 11.2856 0.685439 11.7813 0.578579C12.277 0.471718 12.791 0.477276 13.2841 0.594827C13.7773 0.712378 14.2366 0.938819 14.6269 1.25688C15.0173 1.57495 15.3285 1.97624 15.5367 2.43016C15.745 2.88408 15.8448 3.37864 15.8285 3.87614C15.8123 4.37363 15.6805 4.86092 15.4431 5.30086C15.2057 5.74079 14.869 6.12175 14.4587 6.41469C14.148 6.63569 13.8893 6.84623 13.712 7.05938C13.536 7.266 13.4987 7.40461 13.4987 7.49484C13.4987 7.66223 13.592 7.81523 13.74 7.89499L22.444 12.5765C22.9647 12.8565 23.3756 13.2985 23.6119 13.8327C23.8482 14.367 23.8966 14.9632 23.7493 15.5274C23.602 16.0916 23.2675 16.5917 22.7984 16.9488C22.3294 17.306 21.7525 17.4999 21.1587 17.5H3.83866C3.24408 17.5007 2.66625 17.3068 2.19675 16.949C1.72724 16.5912 1.3929 16.0899 1.24671 15.5247C1.10053 14.9594 1.15085 14.3625 1.3897 13.8285C1.62855 13.2944 2.04228 12.8539 2.56533 12.5765L9.69066 8.79207C9.80629 8.72861 9.93363 8.68832 10.0653 8.67354C10.1969 8.65876 10.3302 8.66978 10.4575 8.70598C10.5848 8.74217 10.7034 8.8028 10.8066 8.88436C10.9097 8.96592 10.9953 9.06677 11.0584 9.18105C11.1215 9.29534 11.1608 9.42078 11.174 9.55008C11.1872 9.67939 11.1741 9.80998 11.1354 9.93427C11.0968 10.0586 11.0333 10.1741 10.9487 10.2741C10.8641 10.3741 10.7601 10.4567 10.6427 10.5169L3.51866 14.3014C3.38693 14.3709 3.28266 14.4815 3.22243 14.6158C3.1622 14.7501 3.14946 14.9003 3.18624 15.0424C3.22302 15.1846 3.30721 15.3107 3.42542 15.4006C3.54364 15.4904 3.68909 15.539 3.83866 15.5385H21.1587C21.3086 15.5385 21.4542 15.4897 21.5727 15.3995C21.6911 15.3094 21.7755 15.1832 21.8127 15.0407C21.8498 14.8983 21.8376 14.7478 21.7778 14.613C21.718 14.4781 21.6142 14.3667 21.4827 14.2961L12.78 9.61461C12.3928 9.40623 12.0698 9.0997 11.8446 8.72706C11.6195 8.35441 11.5004 7.92931 11.5 7.49615C11.5 6.79261 11.82 6.22638 12.168 5.81184C12.512 5.40253 12.9387 5.0743 13.2827 4.82846C13.5109 4.66636 13.681 4.43749 13.7684 4.17471C13.8558 3.91193 13.856 3.62874 13.7691 3.36581C13.6821 3.10289 13.5125 2.87374 13.2845 2.71127C13.0565 2.54881 12.7818 2.46138 12.5 2.46153" fill="white" fill-opacity="0.2"/>
</g>
<defs>
<clipPath id="clip0_70_80">
<rect width="24" height="17" fill="white" transform="translate(0.5 0.5)"/>
</clipPath>
</defs>
</svg>
