<svg width="18" height="12" viewBox="0 0 18 12" fill="none" xmlns="http://www.w3.org/2000/svg">
<g clip-path="url(#clip0_49_30)">
<path d="M1.47601 6.9375V6.942C1.45075 7.03727 1.40696 7.12663 1.34714 7.20496C1.28732 7.2833 1.21264 7.34907 1.12738 7.39853C1.04213 7.44798 0.947956 7.48015 0.850258 7.49318C0.752561 7.50622 0.653252 7.49987 0.55801 7.4745C-0.0884896 7.3035 0.0255104 6.558 0.0255104 6.558L0.0525106 6.465C0.0525106 6.465 0.0915105 6.339 0.12301 6.2475C0.507942 5.16823 1.07461 4.16274 1.79851 3.2745C3.14401 1.6335 5.40751 0 9.00001 0C12.5925 0 14.856 1.6335 16.203 3.2745C16.9269 4.16274 17.4936 5.16823 17.8785 6.2475C17.9108 6.34025 17.9408 6.43378 17.9685 6.528L17.973 6.5475V6.5535L17.9745 6.5565C18.0221 6.7474 17.9928 6.94935 17.8928 7.11882C17.7929 7.28829 17.6304 7.41171 17.4403 7.46248C17.2502 7.51324 17.0478 7.48729 16.8767 7.39021C16.7056 7.29313 16.5794 7.1327 16.5255 6.9435L16.524 6.9375L16.512 6.9L16.4595 6.7365C16.1326 5.82529 15.6533 4.97621 15.042 4.2255C13.929 2.868 12.0675 1.5 9.00001 1.5C5.93251 1.5 4.07251 2.868 2.95801 4.2255C2.34676 4.97621 1.86745 5.82529 1.54051 6.7365L1.48801 6.9L1.47601 6.9375ZM5.25001 8.25C5.25001 7.25544 5.6451 6.30161 6.34836 5.59835C7.05162 4.89509 8.00545 4.5 9.00001 4.5C9.99457 4.5 10.9484 4.89509 11.6517 5.59835C12.3549 6.30161 12.75 7.25544 12.75 8.25C12.75 9.24456 12.3549 10.1984 11.6517 10.9017C10.9484 11.6049 9.99457 12 9.00001 12C8.00545 12 7.05162 11.6049 6.34836 10.9017C5.6451 10.1984 5.25001 9.24456 5.25001 8.25Z" fill="white"/>
</g>
<defs>
<clipPath id="clip0_49_30">
<rect width="18" height="12" fill="white"/>
</clipPath>
</defs>
</svg>
